<svg width="177" height="40" viewBox="0 0 177 40" fill="none" xmlns="http://www.w3.org/2000/svg">
<path d="M33.0806 40C30.4219 40 28.7944 37.9536 28.0854 36.0845C27.5054 34.5698 27.2314 33.0713 27.2314 31.1377C27.2314 27.5767 28.1338 24.209 28.1338 23.8223V23.8062C27.9082 23.5806 22.7842 23.21 18.9331 23.0649C14.5986 28.3501 13.2612 29.9292 10.3125 32.9263C4.96289 38.3726 3.38379 39.0332 1.54688 39.0332C0.660645 39.0332 0 38.7593 0 38.2598C0 37.9214 0.161133 37.8569 1.12793 37.8247C2.6748 37.7441 3.41602 37.2607 7.05762 33.8931C9.79688 31.3633 12.7134 28.0439 16.8223 23.1455C16.4033 23.1294 16.2744 23.1133 15.8232 23.1133C14.3086 23.1133 11.3599 23.4355 9.7002 23.79C7.99219 24.1606 6.39697 24.7891 6.39697 25.2563C6.39697 25.5303 6.9126 25.7559 6.9126 25.8687C6.9126 25.9331 6.73535 26.0137 6.59033 26.0137C6.01025 26.0137 5.31738 25.4014 5.31738 24.7729C5.31738 23.0972 10.0225 21.6953 15.8877 21.5664L18.1274 21.502C27.1831 10.271 31.7432 5.08252 34.3213 5.08252C35.127 5.08252 35.8843 5.5498 35.8843 6.80664C35.8843 8.19238 35.8198 8.75635 33.2095 16.4263C32.436 18.7305 31.2114 22.7588 31.2114 23.0327C31.2114 23.2422 33.4028 23.8062 34.6436 24.8213C35.3687 25.4014 35.9165 26.2715 35.9165 26.6904C35.9165 26.8354 35.8521 26.916 35.707 26.916C35.4653 26.916 35.4009 25.9009 33.2578 25.0469C32.5488 24.7568 31.1147 24.3379 30.9053 24.3379C30.8408 24.3379 30.7764 24.7729 30.5991 25.5303C30.019 28.2373 29.7451 30.2837 29.7451 32.2173C29.7451 35.2305 30.2446 36.9385 31.5176 38.2114C32.1621 38.856 32.5005 39.001 33.4189 39.001C34.144 39.001 34.2568 38.9849 34.8691 38.6787C37.0605 37.6636 38.7847 35.3271 41.2178 31.041C41.7495 30.1064 41.9106 29.8809 42.0396 29.8809H42.0718C42.1846 29.897 42.249 29.9453 42.249 30.0581C42.249 30.2837 40.8794 32.9746 39.7676 34.731C37.9307 37.7119 36.2549 39.291 34.3374 39.855C34.0151 39.9517 33.5479 40 33.0806 40ZM28.4561 22.4688C28.4883 22.4688 28.5527 22.3076 28.6172 22.1143C29.9868 16.9097 32.4199 11.4795 33.2095 9.04639C33.5801 7.93457 33.8701 6.82275 33.8701 6.53271C33.8701 6.46826 33.8379 6.45215 33.8057 6.45215C33.5156 6.45215 32.2427 7.49951 30.7925 8.94971C27.8276 11.9307 25.9907 14.2671 20.1899 21.4858C21.4146 21.6953 24.7822 21.7759 28.4561 22.4688ZM41.9435 27.625C41.6051 27.625 41.299 27.5767 41.0089 27.4961C39.9938 27.1738 39.4137 26.3843 39.4137 25.3369C39.4137 23.9995 40.2838 22.6299 42.3625 20.6802C42.9587 20.1162 43.4421 19.6006 43.4421 19.5522C43.4421 19.2783 41.9274 19.665 41.9274 18.4243C41.9274 18.2632 41.9757 18.0698 42.0563 17.8604C42.1046 17.7476 42.9909 16.1685 44.151 16.1685C44.8439 16.1685 45.2306 16.5068 45.2306 16.958C45.2306 17.6831 43.8288 18.7788 43.8288 18.8271C43.8288 18.8433 44.006 18.8594 44.1994 18.8594C44.9406 18.8916 45.6657 19.3589 45.6657 19.9712C45.6657 20.5513 45.1017 21.3408 43.7965 22.6782C41.7018 24.8213 41.154 25.6914 41.154 26.2876C41.154 26.7065 41.5085 26.8999 42.2497 26.8999C43.7643 26.8999 45.8752 26.0137 49.9035 23.3228C51.4342 22.2915 51.4181 22.2915 51.4826 22.2915C51.5954 22.2915 51.6921 22.3398 51.6921 22.4043C51.6921 22.5332 51.3859 22.7749 50.3869 23.4839C46.4391 26.3198 43.7643 27.625 41.9435 27.625ZM52.6434 27.625C52.2889 27.625 51.9505 27.5767 51.6121 27.4639C50.8065 27.2061 50.1942 26.6743 49.8236 25.9009C49.6141 25.4819 49.598 25.3369 49.598 24.4346C49.598 21.373 52.16 18.2954 53.3363 18.2954C53.8358 18.2954 54.3192 18.5693 54.3192 18.9561C54.3192 19.2139 54.1903 19.4717 53.4974 20.519C51.9988 22.8071 51.5638 24.2734 51.5638 25.4497C51.5638 26.2876 51.9183 26.8354 53.014 26.8354C55.6888 26.8354 59.8944 22.0498 60.3778 22.0498C60.4422 22.0498 60.4744 22.1143 60.4744 22.2109C60.4744 22.356 58.0413 24.7407 57.1873 25.4336C55.3665 26.916 53.9163 27.625 52.6434 27.625ZM55.2054 16.8936C54.9798 16.8936 54.7059 16.8291 54.5931 16.7646C54.4642 16.668 54.3836 16.5229 54.3836 16.3457C54.3836 15.5723 55.6404 14.0576 56.3655 14.0576C56.7684 14.0576 57.2357 14.3154 57.2357 14.7021C57.2357 15.2983 56.0111 16.8936 55.2054 16.8936ZM57.3169 27.625C57.2202 27.625 57.1396 27.6089 57.0591 27.5767C56.8174 27.48 56.7046 27.2866 56.7046 26.9805C56.7046 26.6099 56.8818 26.0781 57.2363 25.3853C57.897 24.1284 67.1299 8.75635 70.0786 4.00293C71.8349 1.18311 72.2378 0.699707 72.8179 0.699707C73.3335 0.699707 73.8491 1.13477 73.8491 1.56982C73.8491 2.34326 62.5698 20.5352 62.5698 20.5996H62.5859C62.6343 20.5996 62.7954 20.5352 63.0049 20.4224C64.3262 19.7617 65.6474 19.3589 66.4692 19.3589C67.146 19.3589 67.5005 19.6973 67.5005 20.0356C67.5005 20.6963 61.7964 22.9199 61.458 23.3872C61.3452 23.5322 61.2969 23.6611 61.2969 23.8223C61.2969 24.4668 62.5376 26.0781 65.2285 26.0781C66.5981 26.0781 68.3545 25.6431 70.1108 24.8374C71.7705 24.0801 73.9136 22.1143 74.0102 22.1143C74.0747 22.1143 74.2358 22.2432 74.2358 22.356C74.2358 22.501 74.0102 22.7427 73.2368 23.4517C70.7231 25.772 67.581 27.1255 64.8257 27.1255C63.6816 27.1255 62.6343 26.8838 61.6836 26.3843C61.1518 26.1104 60.0561 25.1436 60.0561 24.9663C60.0561 24.918 60.04 24.8857 60.0239 24.8857C59.9433 24.8857 59.7822 25.0952 59.5083 25.5142C58.5576 26.9644 57.8647 27.625 57.3169 27.625ZM84.0179 40C83.8245 40 83.6311 39.9517 83.4539 39.8389C83.2122 39.6938 83.1155 39.5166 83.1155 39.2104C83.1155 37.8569 85.5486 33.2324 87.8689 29.4136C88.594 28.189 88.8357 27.8022 88.8357 27.6733C88.8357 27.6089 88.7874 27.6089 88.7229 27.6089C88.4007 27.6089 86.5477 27.8506 85.6453 27.8506L85.452 27.8345C85.0813 27.77 84.8235 27.4316 84.8235 27.1255C84.8235 27.0127 84.8719 26.8838 84.9686 26.7871C85.2103 26.5776 88.7713 25.9653 89.7381 25.9653C89.9476 25.9653 90.0603 25.8203 90.8338 24.5957C92.8641 21.3569 94.2659 19.1978 96.554 15.7334C101.581 8.16016 102.79 7.25781 102.79 6.93555C102.79 6.90332 102.774 6.88721 102.758 6.88721C102.5 6.77441 97.9236 6.64551 95.3455 6.64551L94.3143 6.66162C89.1097 6.80664 85.3553 7.49951 84.179 8.53076C83.889 8.78857 83.8567 8.86914 83.8567 9.20752C83.8567 9.85205 84.5657 10.2388 84.5657 10.4321C84.5657 10.4966 84.469 10.561 84.3885 10.561C83.7923 10.561 82.8416 9.51367 82.8416 8.64355C82.8416 6.61328 87.74 5.08252 95.4422 5.08252C101.92 5.08252 110.911 5.83984 115.664 6.90332C118.178 7.45117 120.321 8.17627 121.191 8.75635C121.755 9.12695 122.11 9.75537 122.11 10.126C122.11 10.271 122.061 10.3516 121.981 10.3516C121.884 10.3516 121.771 10.2549 121.675 10.0615C120.885 8.3374 107.092 7.01611 105.271 7.01611C105.078 7.01611 105.046 7.03223 105.046 7.06445C105.046 7.11279 105.158 7.33838 105.158 7.69287C105.158 8.22461 99.3577 16.4907 93.1541 25.8364C99.0032 26.1909 102.097 26.626 104.031 28.0923C104.466 28.4146 104.691 28.6885 104.691 28.8979C104.691 28.9946 104.627 29.0752 104.514 29.0752C104.256 29.0752 104.433 28.8496 103.418 28.5273C100.711 27.7056 97.7464 27.5444 92.1228 27.4155C91.0755 29.043 89.9153 30.8477 89.9153 31.0088C89.9153 31.5083 84.6302 39.7583 84.3724 39.9194C84.2596 39.9678 84.1468 40 84.0179 40ZM112.33 27.625C111.975 27.625 111.637 27.5767 111.298 27.4639C110.493 27.2061 109.88 26.6743 109.51 25.9009C109.3 25.4819 109.284 25.3369 109.284 24.4346C109.284 21.373 111.846 18.2954 113.022 18.2954C113.522 18.2954 114.005 18.5693 114.005 18.9561C114.005 19.2139 113.876 19.4717 113.184 20.519C111.685 22.8071 111.25 24.2734 111.25 25.4497C111.25 26.2876 111.604 26.8354 112.7 26.8354C115.375 26.8354 119.581 22.0498 120.064 22.0498C120.128 22.0498 120.161 22.1143 120.161 22.2109C120.161 22.356 117.728 24.7407 116.873 25.4336C115.053 26.916 113.603 27.625 112.33 27.625ZM114.892 16.8936C114.666 16.8936 114.392 16.8291 114.279 16.7646C114.15 16.668 114.07 16.5229 114.07 16.3457C114.07 15.5723 115.327 14.0576 116.052 14.0576C116.455 14.0576 116.922 14.3154 116.922 14.7021C116.922 15.2983 115.697 16.8936 114.892 16.8936ZM120.774 27.625C120.612 27.625 120.451 27.6089 120.306 27.5928C119.501 27.48 118.856 26.9482 118.437 26.0459C118.228 25.6108 118.212 25.4819 118.212 24.4507C118.212 21.647 119.936 18.0215 124.383 11.4956C127.493 6.93555 131.586 1.79541 132.601 1.21533C132.842 1.07031 133.084 1.00586 133.326 1.00586C133.68 1.00586 134.276 1.2959 134.276 1.69873C134.276 1.92432 134.083 2.2627 133.584 2.90723C125.994 12.6235 119.984 21.4697 119.984 25.5142C119.984 26.5615 120.387 26.916 121.08 26.916C121.547 26.916 122.192 26.7227 123.013 26.3359C125.172 25.3369 129.12 21.7437 129.346 21.7437C129.41 21.7437 129.475 21.8242 129.475 21.8887C129.475 22.0337 126.945 24.2896 125.559 25.3853C123.69 26.8677 122.079 27.625 120.774 27.625ZM126.349 27.625C126.237 27.625 126.075 27.6089 126.027 27.5767C125.85 27.5122 125.657 27.061 125.657 26.7549C125.657 24.7568 130.41 16.9741 132.472 16.9741C133.294 16.9741 133.89 17.3931 133.89 18.0215C133.89 18.6016 132.617 19.8584 132.617 20.0034C132.73 20.0034 135.373 17.7959 136.904 17.7959C137.838 17.7959 138.563 18.3438 138.563 19.4717C138.563 20.1968 138.144 21.1636 138.144 21.1958C138.16 21.1958 138.579 20.8091 139.095 20.3418C140.884 18.6821 142.43 17.7476 143.397 17.7314C144.751 17.7314 145.041 18.7627 145.041 19.2783C145.041 19.6812 144.751 20.6157 144.203 21.8081C143.236 23.9995 143.091 24.6279 143.091 25.3691C143.091 26.1587 143.462 26.6743 144.251 26.6743C145.315 26.6743 146.185 26.5615 149.343 23.6772C150.31 22.8071 150.745 22.4526 150.89 22.4526C150.954 22.4526 150.97 22.4849 150.97 22.5654C150.97 22.7266 150.777 22.9199 149.005 24.6279C146.958 26.5938 145.524 27.3994 144.155 27.3994C142.221 27.3994 141.012 25.7559 141.012 23.9512C141.012 22.1465 142.64 19.0688 142.64 18.8433C142.64 18.811 142.624 18.7949 142.575 18.7949C142.028 18.7949 140.449 19.5361 137.016 23.1938C136.066 24.2251 135.824 24.4346 135.615 24.4346C135.276 24.4346 135.115 24.1768 135.115 23.6772C135.115 23.4517 135.147 23.1616 135.228 22.8232C135.405 22.0176 136.565 19.6489 136.565 18.8916C136.565 18.7627 136.533 18.7144 136.404 18.7144C135.856 18.7144 134.422 19.1333 132.15 21.1797C129.443 23.5967 127.074 27.625 126.349 27.625ZM161.219 27.625C160.977 27.625 160.736 27.5928 160.462 27.4961C159.398 27.1738 158.125 26.207 158.125 24.0317V23.1455C155.08 26.2715 153.743 27.4155 151.873 27.4155C150.278 27.3994 149.183 26.2393 149.183 24.4829C149.183 21.5503 152.164 17.8442 154.081 17.8442C154.742 17.8442 155.048 18.2954 155.048 18.5049C155.048 18.5854 154.726 18.9883 154.323 19.3911C152.164 21.647 151.229 24.0156 151.229 25.3208C151.229 26.0298 151.342 26.5132 152.292 26.5132C153.436 26.5132 154.887 25.5464 157.094 23.355C158.27 22.1626 158.544 21.8564 158.851 21.2603C159.656 19.7134 160.526 18.9077 161.332 18.9077C161.799 18.9077 162.46 19.2622 162.46 19.7456C162.46 19.9873 162.283 20.3096 161.815 21.0186C160.381 23.1777 160.252 24.5312 160.252 25.4014C160.252 26.3521 160.8 26.8032 161.541 26.8032C162.911 26.8032 164.506 26.0298 167.423 23.4517C168.325 22.646 168.68 22.3721 168.841 22.3721C168.841 22.3721 168.954 22.3721 168.954 22.4365C168.954 22.5977 166.891 24.5957 165.699 25.5786C164.184 26.8516 162.267 27.625 161.219 27.625ZM166.263 27.625C164.233 27.625 163.846 27.0127 163.846 26.4165C163.846 25.5947 165.296 24.4346 167.649 23.6934C167.907 23.6128 168.149 23.5161 168.181 23.4839V23.4678C168.181 23.4355 167.907 23.2744 167.536 23.1294C165.812 22.4365 165.345 21.9854 165.345 21.2119C165.345 19.3267 168.729 16.6357 171.049 16.6357C172.193 16.6357 173.111 17.3125 173.111 18.0859C173.111 18.4727 172.854 18.8594 172.531 18.8594C172.354 18.8594 172.209 18.7466 171.758 18.7466C170.743 18.7466 167.52 21.5664 167.52 21.8242V21.8403C167.536 21.8564 168.729 22.2915 169.873 23.0327C172.274 22.5332 174.868 22.2109 175.867 22.2109C176.076 22.2109 176.157 22.2432 176.205 22.2915C176.254 22.3398 176.27 22.356 176.27 22.3882C176.27 22.5171 170.275 23.1455 170.275 23.5161C170.275 23.8706 170.566 23.6772 170.566 24.7085C170.566 25.8848 169.293 27.625 166.263 27.625ZM165.264 26.6743C166.457 26.6743 167.939 25.9814 168.455 24.9663C168.551 24.7729 168.616 24.3862 168.616 24.1445C168.616 24.0479 168.6 23.9834 168.584 23.9512H168.551C168.084 23.9512 165.103 25.1919 164.652 26.0781C164.571 26.2393 164.523 26.3037 164.523 26.3682C164.539 26.481 164.716 26.6743 165.264 26.6743Z" fill="#313233"/>
</svg>
