<svg width="200" height="120" viewBox="0 0 200 120" fill="none" xmlns="http://www.w3.org/2000/svg">
<path d="M167.191 76.1511L100.224 26.1889L81.4978 41.6228L66.7412 29.2455L101.535 1.81152L197.078 76.1511H167.191Z" fill="#F79E2F"/>
<path d="M166.816 45.2455V20.8682H143.895V26.755L166.816 45.2455Z" fill="#1B6294"/>
<path d="M3.37012 77.2831L62.1716 33.0566L117.79 77.2831H3.37012Z" fill="#1B6294"/>
<path d="M16.1041 92.0753C15.6172 92.981 14.8681 93.6979 13.8569 94.2262C12.8456 94.7923 11.5348 95.0564 9.96175 95.0564H6.77823V102.415H2.95801V83.2451H9.96175C11.4224 83.2451 12.6958 83.5093 13.7071 83.9998C14.7558 84.5281 15.5048 85.2074 16.0292 86.113C16.5535 87.0187 16.8157 88.0376 16.8157 89.1696C16.8157 90.2262 16.591 91.2074 16.1041 92.0753ZM12.134 91.2451C12.6584 90.7545 12.8831 90.0753 12.8831 89.2074C12.8831 87.3583 11.8344 86.4149 9.77449 86.4149H6.74078V91.9998H9.77449C10.8606 91.9621 11.6471 91.7357 12.134 91.2451Z" fill="#353636"/>
<path d="M30.8225 102.453L26.6277 94.9813H24.83V102.453H21.0098V83.2832H28.1633C29.624 83.2832 30.8974 83.5474 31.9086 84.0757C32.9573 84.604 33.7064 85.2832 34.2307 86.1889C34.7551 87.0945 35.0173 88.0757 35.0173 89.17C35.0173 90.4153 34.6427 91.5851 33.9311 92.604C33.2195 93.6228 32.1334 94.3021 30.6727 94.7172L35.2045 102.491H30.8225V102.453ZM24.83 92.0757H28.0135C29.0622 92.0757 29.8113 91.8115 30.3356 91.3209C30.86 90.8304 31.0847 90.1134 31.0847 89.2077C31.0847 88.3398 30.8225 87.6606 30.3356 87.17C29.8113 86.6794 29.0622 86.453 28.0135 86.453H24.83V92.0757Z" fill="#353636"/>
<path d="M43.8933 101.359C42.3952 100.528 41.2342 99.3587 40.3353 97.8492C39.4739 96.3398 39.0244 94.6794 39.0244 92.7926C39.0244 90.9436 39.4739 89.2455 40.3353 87.7738C41.1967 86.2643 42.3952 85.1323 43.8933 84.2643C45.3915 83.4341 47.0019 83.019 48.7997 83.019C50.5974 83.019 52.2454 83.4341 53.7061 84.2643C55.2042 85.0945 56.3652 86.2643 57.2267 87.7738C58.0881 89.2832 58.5375 90.9436 58.5375 92.7926C58.5375 94.6794 58.0881 96.3775 57.2267 97.8492C56.3652 99.3587 55.2042 100.491 53.7061 101.359C52.2079 102.189 50.5974 102.604 48.7997 102.604C47.0394 102.642 45.3915 102.227 43.8933 101.359ZM51.8334 98.4153C52.6948 97.887 53.369 97.1322 53.8933 96.1889C54.3802 95.2077 54.6424 94.0756 54.6424 92.8304C54.6424 91.5473 54.3802 90.4153 53.8933 89.4719C53.4064 88.5285 52.7323 87.7738 51.8334 87.2455C50.972 86.7172 49.9607 86.4907 48.7997 86.4907C47.6386 86.4907 46.6274 86.7549 45.766 87.2455C44.8671 87.7738 44.193 88.4907 43.7061 89.4719C43.2192 90.4153 42.957 91.5473 42.957 92.8304C42.957 94.1134 43.2192 95.2455 43.7061 96.1889C44.193 97.17 44.8671 97.887 45.766 98.4153C46.6649 98.9436 47.6761 99.2077 48.7997 99.2077C49.9233 99.2077 50.972 98.9436 51.8334 98.4153Z" fill="#353636"/>
<path d="M76.1049 89.0569C75.6555 88.2645 75.0562 87.623 74.3072 87.2079C73.5581 86.7928 72.6592 86.5664 71.648 86.5664C70.5244 86.5664 69.5132 86.8305 68.6517 87.3211C67.7903 87.8494 67.1161 88.5664 66.5918 89.5097C66.1049 90.4531 65.8427 91.5475 65.8427 92.7928C65.8427 94.0758 66.1049 95.2079 66.5918 96.1513C67.0787 97.0947 67.7903 97.8494 68.6892 98.3399C69.5881 98.8682 70.5993 99.0947 71.7978 99.0947C73.2585 99.0947 74.457 98.7173 75.3558 97.9248C76.2922 97.1324 76.8914 96.0758 77.1911 94.6796H70.6367V91.7362H80.9364V95.0947C80.6742 96.4154 80.1499 97.6607 79.2884 98.7928C78.4645 99.9248 77.3783 100.831 76.0675 101.51C74.7566 102.189 73.2585 102.529 71.648 102.529C69.8128 102.529 68.1648 102.114 66.6667 101.283C65.1686 100.453 64.0075 99.2833 63.1836 97.8116C62.3221 96.3399 61.9102 94.6418 61.9102 92.755C61.9102 90.8682 62.3221 89.1701 63.1836 87.6984C64.045 86.189 65.206 85.0569 66.6667 84.2267C68.1648 83.3965 69.8128 82.9814 71.6105 82.9814C73.7454 82.9814 75.618 83.5098 77.1911 84.5664C78.7641 85.623 79.8502 87.0947 80.4495 88.9814H76.1049V89.0569Z" fill="#353636"/>
<path d="M95.093 102.453L90.8983 94.9808H89.1005V102.453H85.2803V83.2827H92.4338C93.8945 83.2827 95.1679 83.5469 96.1791 84.0752C97.2278 84.6035 97.9769 85.2827 98.5012 86.1884C99.0256 87.094 99.2878 88.0752 99.2878 89.1695C99.2878 90.4148 98.9132 91.5846 98.2016 92.6035C97.49 93.6223 96.4039 94.3016 94.9432 94.7167L99.475 102.49H95.093V102.453ZM89.1005 92.0752H92.284C93.3327 92.0752 94.0818 91.811 94.6061 91.3205C95.1305 90.8299 95.3552 90.1129 95.3552 89.2072C95.3552 88.3393 95.093 87.6601 94.6061 87.1695C94.0818 86.6789 93.3327 86.4525 92.284 86.4525H89.1005V92.0752Z" fill="#353636"/>
<path d="M108.052 86.3771V91.1695H114.456V94.2261H108.052V99.3205H115.28V102.453H104.231V83.2827H115.28V86.4148H108.052V86.3771Z" fill="#353636"/>
<path d="M123.219 101.962C122.17 101.509 121.309 100.83 120.71 100C120.111 99.132 119.773 98.1132 119.773 96.9434H123.856C123.893 97.7358 124.193 98.3396 124.68 98.7924C125.167 99.2452 125.878 99.4717 126.74 99.4717C127.639 99.4717 128.313 99.2452 128.837 98.8301C129.361 98.4151 129.586 97.849 129.586 97.132C129.586 96.566 129.399 96.1132 129.062 95.7358C128.725 95.3585 128.275 95.0943 127.751 94.8679C127.227 94.6415 126.515 94.4151 125.616 94.1509C124.38 93.7735 123.369 93.4339 122.62 93.0566C121.833 92.7169 121.197 92.1509 120.635 91.4339C120.073 90.7169 119.811 89.7358 119.811 88.5283C119.811 87.3962 120.111 86.4151 120.672 85.5471C121.234 84.7169 122.021 84.0754 123.032 83.6226C124.043 83.1698 125.204 82.9434 126.515 82.9434C128.463 82.9434 130.073 83.4339 131.309 84.3773C132.545 85.3207 133.219 86.6792 133.331 88.4151H129.137C129.099 87.7735 128.837 87.2075 128.313 86.7924C127.788 86.3773 127.114 86.1509 126.253 86.1509C125.504 86.1509 124.905 86.3396 124.455 86.7169C124.006 87.0943 123.781 87.6603 123.781 88.3773C123.781 88.9056 123.931 89.3207 124.268 89.6603C124.605 90 125.017 90.2641 125.504 90.4905C125.991 90.7169 126.702 90.9434 127.601 91.2075C128.837 91.5849 129.848 91.9245 130.635 92.3019C131.421 92.6792 132.096 93.2075 132.657 93.9622C133.219 94.6792 133.519 95.6603 133.519 96.8302C133.519 97.849 133.257 98.7924 132.732 99.6981C132.208 100.566 131.421 101.283 130.41 101.811C129.399 102.34 128.2 102.604 126.777 102.604C125.466 102.641 124.268 102.415 123.219 101.962Z" fill="#353636"/>
<path d="M141.311 101.962C140.262 101.509 139.401 100.83 138.802 100C138.202 99.132 137.865 98.1132 137.865 96.9434H141.948C141.985 97.7358 142.285 98.3396 142.772 98.7924C143.258 99.2452 143.97 99.4717 144.832 99.4717C145.73 99.4717 146.405 99.2452 146.929 98.8301C147.453 98.4151 147.678 97.849 147.678 97.132C147.678 96.566 147.491 96.1132 147.154 95.7358C146.817 95.3585 146.367 95.0943 145.843 94.8679C145.318 94.6415 144.607 94.4151 143.708 94.1509C142.472 93.7735 141.461 93.4339 140.712 93.0566C139.925 92.7169 139.288 92.1509 138.727 91.4339C138.165 90.7169 137.903 89.7358 137.903 88.5283C137.903 87.3962 138.202 86.4151 138.764 85.5471C139.326 84.7169 140.112 84.0754 141.124 83.6226C142.135 83.1698 143.296 82.9434 144.607 82.9434C146.554 82.9434 148.165 83.4339 149.401 84.3773C150.637 85.3207 151.311 86.6792 151.423 88.4151H147.191C147.154 87.7735 146.891 87.2075 146.367 86.7924C145.843 86.3773 145.169 86.1509 144.307 86.1509C143.558 86.1509 142.959 86.3396 142.509 86.7169C142.06 87.0943 141.835 87.6603 141.835 88.3773C141.835 88.9056 141.985 89.3207 142.322 89.6603C142.659 90 143.071 90.2641 143.558 90.4905C144.045 90.7169 144.757 90.9434 145.655 91.2075C146.891 91.5849 147.903 91.9245 148.689 92.3019C149.476 92.6792 150.15 93.2075 150.712 93.9622C151.273 94.6792 151.573 95.6603 151.573 96.8302C151.573 97.849 151.311 98.7924 150.787 99.6981C150.262 100.566 149.476 101.283 148.464 101.811C147.453 102.34 146.255 102.604 144.832 102.604C143.558 102.641 142.36 102.415 141.311 101.962Z" fill="#353636"/>
<path d="M160.224 83.2832V102.453H156.403V83.2832H160.224Z" fill="#353636"/>
<path d="M182.546 83.2827L175.579 102.453H170.935L163.969 83.2827H168.051L173.295 98.528L178.501 83.2827H182.546Z" fill="#353636"/>
<path d="M190.149 86.3775V91.17H196.554V94.2266H190.149V99.3209H197.378V102.453H186.329V83.2832H197.378V86.4153H190.149V86.3775Z" fill="#353636"/>
<path d="M9.96142 112.83C10.2985 113.283 10.4858 113.773 10.4858 114.34C10.4858 114.83 10.3734 115.245 10.1112 115.66C9.84906 116.038 9.51199 116.34 9.02509 116.566C8.5382 116.792 8.01386 116.906 7.37715 116.906H3.63184V107.358H7.22734C7.86405 107.358 8.42584 107.472 8.87528 107.698C9.32472 107.924 9.69925 108.226 9.92397 108.566C10.1487 108.943 10.261 109.358 10.261 109.811C10.261 110.377 10.1112 110.83 9.81161 111.17C9.51199 111.547 9.13745 111.811 8.65056 111.962C9.17491 112.113 9.62435 112.377 9.96142 112.83ZM5.16742 111.396H7.07753C7.60187 111.396 7.97641 111.283 8.27603 111.057C8.57566 110.83 8.68802 110.49 8.68802 110.038C8.68802 109.623 8.5382 109.283 8.27603 109.019C7.97641 108.792 7.60187 108.641 7.07753 108.641H5.16742V111.396ZM8.50075 115.245C8.80038 114.981 8.95019 114.641 8.95019 114.189C8.95019 113.736 8.80038 113.358 8.4633 113.094C8.16367 112.83 7.71423 112.679 7.18989 112.679H5.12996V115.66H7.22734C7.78914 115.66 8.20112 115.509 8.50075 115.245Z" fill="#353535"/>
<path d="M15.2801 107.396V113.472C15.2801 114.189 15.4673 114.755 15.8419 115.095C16.2164 115.472 16.7407 115.661 17.4149 115.661C18.0891 115.661 18.6134 115.472 18.9879 115.095C19.3625 114.717 19.5497 114.189 19.5497 113.472V107.396H21.0853V113.434C21.0853 114.227 20.9355 114.868 20.5984 115.396C20.2613 115.925 19.8119 116.34 19.2501 116.604C18.6883 116.868 18.0516 117.019 17.3774 117.019C16.7033 117.019 16.0666 116.868 15.5048 116.604C14.943 116.34 14.4935 115.925 14.1939 115.396C13.8568 114.868 13.707 114.189 13.707 113.434V107.396H15.2801Z" fill="#353535"/>
<path d="M26.2534 107.396V116.944H24.7178V107.396H26.2534Z" fill="#353535"/>
<path d="M31.3842 115.66H34.5677V116.906H29.8486V107.358H31.3842V115.66Z" fill="#353535"/>
<path d="M43.1825 107.962C43.9316 108.34 44.5308 108.906 44.9428 109.623C45.3548 110.34 45.5795 111.208 45.5795 112.151C45.5795 113.132 45.3548 113.962 44.9428 114.679C44.5308 115.396 43.9316 115.925 43.1825 116.302C42.4334 116.679 41.5345 116.868 40.5233 116.868H37.4521V107.321H40.5608C41.5345 107.396 42.4334 107.585 43.1825 107.962ZM43.0701 114.755C43.6694 114.151 43.969 113.283 43.969 112.189C43.969 111.094 43.6694 110.226 43.0701 109.585C42.4709 108.981 41.6469 108.642 40.5233 108.642H38.9877V115.623H40.5233C41.6469 115.66 42.5083 115.359 43.0701 114.755Z" fill="#353535"/>
<path d="M50.2234 108.641V111.434H53.4819V112.717H50.2234V115.623H53.8938V116.906H48.6504V107.358H53.8938V108.641H50.2234Z" fill="#353535"/>
<path d="M62.2833 116.906L60.111 113.095H58.9125V116.906H57.377V107.359H60.6354C61.347 107.359 61.9837 107.472 62.4706 107.736C62.9575 108 63.3695 108.34 63.5942 108.755C63.8564 109.17 63.9687 109.661 63.9687 110.189C63.9687 110.793 63.7814 111.359 63.4444 111.887C63.0698 112.378 62.5455 112.755 61.7964 112.906L64.156 116.868H62.2833V116.906ZM58.9125 111.849H60.6354C61.2346 111.849 61.6466 111.699 61.9462 111.397C62.2459 111.095 62.3957 110.717 62.3957 110.227C62.3957 109.736 62.2459 109.359 61.9462 109.057C61.6466 108.793 61.1972 108.642 60.6354 108.642H58.9125V111.849Z" fill="#353535"/>
<path d="M68.9136 116.679C68.3892 116.453 68.0147 116.151 67.7151 115.736C67.4154 115.321 67.2656 114.83 67.2656 114.302H68.9136C68.951 114.717 69.1008 115.057 69.4005 115.321C69.7001 115.585 70.0746 115.736 70.599 115.736C71.1233 115.736 71.5353 115.623 71.8349 115.359C72.1345 115.094 72.2843 114.755 72.2843 114.34C72.2843 114.038 72.2094 113.774 72.0222 113.547C71.8349 113.359 71.6102 113.208 71.3106 113.094C71.0484 112.981 70.6364 112.868 70.1495 112.755C69.5503 112.604 69.0259 112.415 68.6514 112.264C68.2769 112.113 67.9398 111.849 67.6776 111.472C67.4154 111.132 67.2656 110.642 67.2656 110.038C67.2656 109.472 67.4154 109.019 67.6776 108.604C67.9398 108.189 68.3143 107.887 68.8387 107.66C69.363 107.434 69.8873 107.321 70.5241 107.321C71.4229 107.321 72.2094 107.547 72.7712 108C73.3705 108.453 73.6701 109.094 73.745 109.887H72.0222C71.9847 109.547 71.8349 109.245 71.5353 108.981C71.2357 108.717 70.8237 108.604 70.3368 108.604C69.8873 108.604 69.5128 108.717 69.2506 108.943C68.951 109.17 68.8387 109.509 68.8387 109.925C68.8387 110.226 68.9136 110.453 69.1008 110.642C69.2881 110.83 69.5128 110.981 69.775 111.094C70.0372 111.208 70.4117 111.321 70.8986 111.434C71.5353 111.623 72.0222 111.774 72.4342 111.962C72.8461 112.151 73.1832 112.415 73.4454 112.755C73.7076 113.132 73.8574 113.585 73.8574 114.189C73.8574 114.679 73.745 115.132 73.4829 115.547C73.2207 115.962 72.8461 116.34 72.3593 116.566C71.8724 116.83 71.2731 116.943 70.599 116.943C69.9997 117.019 69.4379 116.906 68.9136 116.679Z" fill="#353535"/>
<path d="M77.1903 116.717C77.003 116.528 76.8906 116.302 76.8906 116C76.8906 115.698 77.003 115.472 77.1903 115.283C77.3775 115.094 77.6022 114.981 77.9019 114.981C78.164 114.981 78.3887 115.094 78.6135 115.283C78.8007 115.472 78.9131 115.698 78.9131 116C78.9131 116.302 78.8007 116.528 78.6135 116.717C78.4262 116.905 78.2015 117.019 77.9019 117.019C77.6397 117.019 77.415 116.905 77.1903 116.717Z" fill="#353535"/>
<path d="M83.6687 115.661H86.8523V116.906H82.0957V107.359H83.6313V115.661H83.6687Z" fill="#353535"/>
<path d="M95.4295 114.981H91.4594L90.7853 116.943H89.1748L92.583 107.396H94.3808L97.789 116.943H96.1411L95.4295 114.981ZM94.98 113.698L93.4445 109.283L91.9089 113.698H94.98Z" fill="#353535"/>
</svg>
