<svg width="104" height="62" viewBox="0 0 104 62" fill="none" xmlns="http://www.w3.org/2000/svg">
<path d="M86.9398 39.3448L52.1173 13.531L42.3795 21.5052L34.7061 15.1102L52.7989 0.936035L102.481 39.3448H86.9398Z" fill="white"/>
<path d="M86.7453 23.377V10.782H74.8262V13.8235L86.7453 23.377Z" fill="white"/>
<path d="M1.75293 39.9299L32.3297 17.0796L61.2511 39.9299H1.75293Z" fill="white"/>
<path d="M8.37502 47.5725C8.12183 48.0404 7.73232 48.4109 7.20648 48.6838C6.68064 48.9763 5.99899 49.1128 5.18101 49.1128H3.52558V52.9147H1.53906V43.0103H5.18101C5.94056 43.0103 6.60273 43.1467 7.12858 43.4002C7.67389 43.6731 8.06341 44.0241 8.33607 44.492C8.60873 44.9599 8.74505 45.4864 8.74505 46.0713C8.74505 46.6172 8.6282 47.1241 8.37502 47.5725ZM6.3106 47.1436C6.58326 46.8901 6.70011 46.5392 6.70011 46.0908C6.70011 45.1354 6.15479 44.648 5.08363 44.648H3.5061V47.5335H5.08363C5.64843 47.514 6.05742 47.397 6.3106 47.1436Z" fill="white"/>
<path d="M16.0294 52.9339L13.8481 49.0736H12.9133V52.9339H10.9268V43.0295H14.6466C15.4062 43.0295 16.0683 43.166 16.5942 43.439C17.1395 43.7119 17.529 44.0629 17.8017 44.5308C18.0743 44.9987 18.2107 45.5056 18.2107 46.0711C18.2107 46.7144 18.0159 47.3188 17.6459 47.8453C17.2758 48.3717 16.711 48.7226 15.9515 48.9371L18.308 52.9534H16.0294V52.9339ZM12.9133 47.5723H14.5687C15.114 47.5723 15.5035 47.4358 15.7762 47.1824C16.0489 46.9289 16.1657 46.5585 16.1657 46.0905C16.1657 45.6421 16.0294 45.2912 15.7762 45.0377C15.5035 44.7843 15.114 44.6673 14.5687 44.6673H12.9133V47.5723Z" fill="white"/>
<path d="M22.8258 52.3688C22.0468 51.9399 21.443 51.3354 20.9756 50.5556C20.5277 49.7757 20.2939 48.9178 20.2939 47.943C20.2939 46.9876 20.5277 46.1103 20.9756 45.3499C21.4235 44.57 22.0468 43.9851 22.8258 43.5367C23.6048 43.1078 24.4423 42.8933 25.3771 42.8933C26.3119 42.8933 27.1689 43.1078 27.9284 43.5367C28.7074 43.9656 29.3112 44.57 29.7591 45.3499C30.2071 46.1298 30.4408 46.9876 30.4408 47.943C30.4408 48.9178 30.2071 49.7952 29.7591 50.5556C29.3112 51.3354 28.7074 51.9204 27.9284 52.3688C27.1494 52.7977 26.3119 53.0122 25.3771 53.0122C24.4617 53.0317 23.6048 52.8172 22.8258 52.3688ZM26.9546 50.848C27.4026 50.5751 27.7531 50.1851 28.0258 49.6977C28.279 49.1908 28.4153 48.6059 28.4153 47.9625C28.4153 47.2996 28.279 46.7147 28.0258 46.2273C27.7726 45.7399 27.422 45.3499 26.9546 45.077C26.5067 44.804 25.9808 44.687 25.3771 44.687C24.7733 44.687 24.2475 44.8235 23.7996 45.077C23.3321 45.3499 22.9816 45.7204 22.7284 46.2273C22.4752 46.7147 22.3389 47.2996 22.3389 47.9625C22.3389 48.6254 22.4752 49.2103 22.7284 49.6977C22.9816 50.2046 23.3321 50.5751 23.7996 50.848C24.267 51.121 24.7928 51.2575 25.3771 51.2575C25.9614 51.2575 26.5067 51.121 26.9546 50.848Z" fill="white"/>
<path d="M39.5746 46.0128C39.3409 45.6033 39.0293 45.2719 38.6398 45.0574C38.2503 44.843 37.7829 44.726 37.257 44.726C36.6728 44.726 36.1469 44.8625 35.699 45.1159C35.251 45.3889 34.9005 45.7593 34.6278 46.2467C34.3746 46.7342 34.2383 47.2996 34.2383 47.943C34.2383 48.6059 34.3746 49.1908 34.6278 49.6782C34.881 50.1656 35.251 50.5555 35.7185 50.809C36.1859 51.082 36.7117 51.1989 37.3349 51.1989C38.0945 51.1989 38.7177 51.004 39.1851 50.5945C39.672 50.1851 39.9836 49.6392 40.1394 48.9178H36.7312V47.3971H42.087V49.1323C41.9507 49.8147 41.678 50.4581 41.2301 51.043C40.8016 51.6279 40.2368 52.0958 39.5552 52.4467C38.8735 52.7977 38.0945 52.9732 37.257 52.9732C36.3027 52.9732 35.4458 52.7587 34.6668 52.3298C33.8877 51.9008 33.284 51.2964 32.8555 50.536C32.4076 49.7757 32.1934 48.8983 32.1934 47.9235C32.1934 46.9486 32.4076 46.0713 32.8555 45.3109C33.3035 44.531 33.9072 43.9461 34.6668 43.5172C35.4458 43.0882 36.3027 42.8738 37.2376 42.8738C38.3477 42.8738 39.3214 43.1467 40.1394 43.6926C40.9574 44.2386 41.5222 44.9989 41.8338 45.9738H39.5746V46.0128Z" fill="white"/>
<path d="M49.4493 52.9342L47.268 49.0738H46.3332V52.9342H44.3467V43.0298H48.0665C48.8261 43.0298 49.4883 43.1663 50.0141 43.4392C50.5594 43.7122 50.9489 44.0631 51.2216 44.531C51.4942 44.999 51.6306 45.5059 51.6306 46.0713C51.6306 46.7147 51.4358 47.3191 51.0658 47.8455C50.6957 48.3719 50.131 48.7229 49.3714 48.9373L51.728 52.9537H49.4493V52.9342ZM46.3332 47.5726H47.9886C48.5339 47.5726 48.9235 47.4361 49.1961 47.1826C49.4688 46.9292 49.5856 46.5587 49.5856 46.0908C49.5856 45.6424 49.4493 45.2914 49.1961 45.038C48.9235 44.7845 48.5339 44.6675 47.9886 44.6675H46.3332V47.5726Z" fill="white"/>
<path d="M56.1877 44.6285V47.1046H59.518V48.6839H56.1877V51.316H59.9465V52.9342H54.2012V43.0298H59.9465V44.648H56.1877V44.6285Z" fill="white"/>
<path d="M64.075 52.6807C63.5296 52.4467 63.0817 52.0958 62.7701 51.6668C62.4585 51.2184 62.2832 50.692 62.2832 50.0876H64.4061C64.4255 50.497 64.5813 50.809 64.8345 51.0429C65.0877 51.2769 65.4577 51.3939 65.9057 51.3939C66.3731 51.3939 66.7237 51.2769 66.9963 51.0624C67.269 50.848 67.3858 50.5555 67.3858 50.1851C67.3858 49.8926 67.2885 49.6586 67.1132 49.4637C66.9379 49.2687 66.7042 49.1322 66.4315 49.0153C66.1589 48.8983 65.7888 48.7813 65.3214 48.6448C64.6787 48.4498 64.1529 48.2744 63.7634 48.0794C63.3544 47.9039 63.0233 47.6115 62.7311 47.241C62.439 46.8706 62.3027 46.3637 62.3027 45.7398C62.3027 45.1549 62.4585 44.648 62.7506 44.1995C63.0428 43.7706 63.4517 43.4392 63.9776 43.2052C64.5034 42.9712 65.1072 42.8542 65.7888 42.8542C66.8016 42.8542 67.639 43.1077 68.2817 43.5951C68.9244 44.0826 69.275 44.7844 69.3334 45.6813H67.1521C67.1326 45.3498 66.9963 45.0574 66.7237 44.8429C66.451 44.6285 66.1004 44.5115 65.6525 44.5115C65.263 44.5115 64.9514 44.609 64.7177 44.8039C64.484 44.9989 64.3671 45.2914 64.3671 45.6618C64.3671 45.9347 64.445 46.1492 64.6203 46.3247C64.7956 46.5002 65.0098 46.6366 65.263 46.7536C65.5162 46.8706 65.8862 46.9876 66.3536 47.1241C66.9963 47.319 67.5222 47.4945 67.9311 47.6895C68.3401 47.8844 68.6907 48.1574 68.9828 48.5473C69.275 48.9178 69.4308 49.4247 69.4308 50.0291C69.4308 50.5555 69.2944 51.0429 69.0218 51.5109C68.7491 51.9593 68.3401 52.3297 67.8143 52.6027C67.2885 52.8756 66.6652 53.0121 65.9252 53.0121C65.2435 53.0316 64.6203 52.9146 64.075 52.6807Z" fill="white"/>
<path d="M73.4822 52.6807C72.9369 52.4467 72.4889 52.0958 72.1773 51.6668C71.8657 51.2184 71.6904 50.692 71.6904 50.0876H73.8133C73.8328 50.497 73.9886 50.809 74.2417 51.0429C74.4949 51.2769 74.865 51.3939 75.3129 51.3939C75.7803 51.3939 76.1309 51.2769 76.4035 51.0624C76.6762 50.848 76.793 50.5555 76.793 50.1851C76.793 49.8926 76.6957 49.6586 76.5204 49.4637C76.3451 49.2687 76.1114 49.1322 75.8387 49.0153C75.5661 48.8983 75.196 48.7813 74.7286 48.6448C74.0859 48.4498 73.5601 48.2744 73.1706 48.0794C72.7616 47.9039 72.4305 47.6115 72.1384 47.241C71.8462 46.8706 71.7099 46.3637 71.7099 45.7398C71.7099 45.1549 71.8657 44.648 72.1578 44.1995C72.45 43.7706 72.859 43.4392 73.3848 43.2052C73.9107 42.9712 74.5144 42.8542 75.196 42.8542C76.2088 42.8542 77.0462 43.1077 77.6889 43.5951C78.3316 44.0826 78.6822 44.7844 78.7406 45.6813H76.5399C76.5204 45.3498 76.3841 45.0574 76.1114 44.8429C75.8387 44.6285 75.4882 44.5115 75.0402 44.5115C74.6507 44.5115 74.3391 44.609 74.1054 44.8039C73.8717 44.9989 73.7549 45.2914 73.7549 45.6618C73.7549 45.9347 73.8328 46.1492 74.008 46.3247C74.1833 46.5002 74.3975 46.6366 74.6507 46.7536C74.9039 46.8706 75.2739 46.9876 75.7414 47.1241C76.3841 47.319 76.9099 47.4945 77.3189 47.6895C77.7279 47.8844 78.0784 48.1574 78.3706 48.5473C78.6627 48.9178 78.8185 49.4247 78.8185 50.0291C78.8185 50.5555 78.6822 51.0429 78.4095 51.5109C78.1369 51.9593 77.7279 52.3297 77.202 52.6027C76.6762 52.8756 76.053 53.0121 75.3129 53.0121C74.6507 53.0316 74.0275 52.9146 73.4822 52.6807Z" fill="white"/>
<path d="M83.3176 43.0298V52.9342H81.3311V43.0298H83.3176Z" fill="white"/>
<path d="M94.9246 43.0295L91.3021 52.9339H88.8871L85.2646 43.0295H87.3875L90.1141 50.9063L92.8212 43.0295H94.9246Z" fill="white"/>
<path d="M98.8781 44.6283V47.1044H102.208V48.6836H98.8781V51.3157H102.637V52.9339H96.8916V43.0295H102.637V44.6478H98.8781V44.6283Z" fill="white"/>
<path d="M5.18103 58.2958C5.35632 58.5298 5.45369 58.7832 5.45369 59.0757C5.45369 59.3291 5.39527 59.5436 5.25894 59.7581C5.12261 59.953 4.94733 60.109 4.69414 60.226C4.44096 60.343 4.1683 60.4015 3.83721 60.4015H1.88965V55.4688H3.75931C4.0904 55.4688 4.38253 55.5272 4.61624 55.6442C4.84995 55.7612 5.0447 55.9172 5.16156 56.0927C5.27841 56.2876 5.33684 56.5021 5.33684 56.736C5.33684 57.0285 5.25894 57.2625 5.10313 57.4379C4.94733 57.6329 4.75257 57.7694 4.49939 57.8474C4.77205 57.9254 5.00575 58.0618 5.18103 58.2958ZM2.68815 57.5549H3.68141C3.95407 57.5549 4.14882 57.4964 4.30463 57.3794C4.46044 57.2625 4.51886 57.087 4.51886 56.853C4.51886 56.6386 4.44096 56.4631 4.30463 56.3266C4.14882 56.2096 3.95407 56.1316 3.68141 56.1316H2.68815V57.5549ZM4.42148 59.5436C4.57729 59.4071 4.65519 59.2316 4.65519 58.9977C4.65519 58.7637 4.57729 58.5688 4.40201 58.4323C4.2462 58.2958 4.0125 58.2178 3.73984 58.2178H2.66867V59.7581H3.75931C4.05145 59.7581 4.26568 59.6801 4.42148 59.5436Z" fill="white"/>
<path d="M7.94688 55.4883V58.6273C7.94688 58.9977 8.04426 59.2902 8.23902 59.4656C8.43378 59.6606 8.70643 59.7581 9.057 59.7581C9.40756 59.7581 9.68022 59.6606 9.87497 59.4656C10.0697 59.2707 10.1671 58.9977 10.1671 58.6273V55.4883H10.9656V58.6078C10.9656 59.0172 10.8877 59.3487 10.7124 59.6216C10.5371 59.8946 10.3034 60.109 10.0113 60.2455C9.71917 60.382 9.38808 60.46 9.03752 60.46C8.68696 60.46 8.35587 60.382 8.06374 60.2455C7.7716 60.109 7.5379 59.8946 7.38209 59.6216C7.20681 59.3487 7.12891 58.9977 7.12891 58.6078V55.4883H7.94688Z" fill="white"/>
<path d="M13.653 55.4883V60.421H12.8545V55.4883H13.653Z" fill="white"/>
<path d="M16.321 59.7581H17.9764V60.4015H15.5225V55.4688H16.321V59.7581Z" fill="white"/>
<path d="M22.4563 55.7807C22.8459 55.9756 23.1575 56.2681 23.3717 56.6385C23.5859 57.009 23.7028 57.4574 23.7028 57.9448C23.7028 58.4517 23.5859 58.8807 23.3717 59.2511C23.1575 59.6215 22.8459 59.8945 22.4563 60.0895C22.0668 60.2844 21.5994 60.3819 21.0736 60.3819H19.4766V55.4492H21.093C21.5994 55.4882 22.0668 55.5857 22.4563 55.7807ZM22.3979 59.2901C22.7095 58.9782 22.8653 58.5297 22.8653 57.9643C22.8653 57.3989 22.7095 56.9505 22.3979 56.619C22.0863 56.3071 21.6578 56.1316 21.0736 56.1316H20.2751V59.7385H21.0736C21.6578 59.758 22.1058 59.6021 22.3979 59.2901Z" fill="white"/>
<path d="M26.1178 56.1316V57.5744H27.8122V58.2373H26.1178V59.7386H28.0264V60.4015H25.2998V55.4688H28.0264V56.1316H26.1178Z" fill="white"/>
<path d="M32.3882 60.4015L31.2586 58.4323H30.6354V60.4015H29.8369V55.4688H31.5313C31.9013 55.4688 32.2324 55.5272 32.4856 55.6637C32.7388 55.8002 32.953 55.9757 33.0699 56.1901C33.2062 56.4046 33.2646 56.6581 33.2646 56.931C33.2646 57.243 33.1673 57.5354 32.992 57.8084C32.7972 58.0618 32.5246 58.2568 32.135 58.3348L33.362 60.382H32.3882V60.4015ZM30.6354 57.7889H31.5313C31.8429 57.7889 32.0571 57.7109 32.2129 57.5549C32.3687 57.3989 32.4467 57.204 32.4467 56.9505C32.4467 56.6971 32.3687 56.5021 32.2129 56.3461C32.0571 56.2096 31.8234 56.1316 31.5313 56.1316H30.6354V57.7889Z" fill="white"/>
<path d="M35.8354 60.2844C35.5628 60.1675 35.368 60.0115 35.2122 59.797C35.0564 59.5826 34.9785 59.3291 34.9785 59.0561H35.8354C35.8549 59.2706 35.9328 59.4461 36.0886 59.5826C36.2444 59.719 36.4392 59.797 36.7118 59.797C36.9845 59.797 37.1987 59.7385 37.3545 59.6021C37.5104 59.4656 37.5883 59.2901 37.5883 59.0756C37.5883 58.9197 37.5493 58.7832 37.4519 58.6662C37.3545 58.5687 37.2377 58.4907 37.0819 58.4322C36.9456 58.3738 36.7313 58.3153 36.4781 58.2568C36.1665 58.1788 35.8939 58.0813 35.6991 58.0033C35.5044 57.9253 35.3291 57.7888 35.1927 57.5939C35.0564 57.4184 34.9785 57.1649 34.9785 56.853C34.9785 56.5605 35.0564 56.3266 35.1927 56.1121C35.3291 55.8976 35.5238 55.7417 35.7965 55.6247C36.0692 55.5077 36.3418 55.4492 36.6729 55.4492C37.1403 55.4492 37.5493 55.5662 37.8414 55.8002C38.153 56.0341 38.3089 56.3656 38.3478 56.775H37.4519C37.4324 56.5995 37.3545 56.4436 37.1987 56.3071C37.0429 56.1706 36.8287 56.1121 36.5755 56.1121C36.3418 56.1121 36.1471 56.1706 36.0107 56.2876C35.8549 56.4046 35.7965 56.58 35.7965 56.7945C35.7965 56.9505 35.8354 57.0675 35.9328 57.1649C36.0302 57.2624 36.1471 57.3404 36.2834 57.3989C36.4197 57.4574 36.6145 57.5159 36.8677 57.5744C37.1987 57.6719 37.4519 57.7499 37.6662 57.8473C37.8804 57.9448 38.0557 58.0813 38.192 58.2568C38.3283 58.4517 38.4062 58.6857 38.4062 58.9976C38.4062 59.2511 38.3478 59.4851 38.2115 59.6995C38.0751 59.914 37.8804 60.109 37.6272 60.2259C37.374 60.3624 37.0624 60.4209 36.7118 60.4209C36.4002 60.4599 36.1081 60.4014 35.8354 60.2844Z" fill="white"/>
<path d="M40.1402 60.3041C40.0428 60.2066 39.9844 60.0896 39.9844 59.9336C39.9844 59.7777 40.0428 59.6607 40.1402 59.5632C40.2376 59.4657 40.3544 59.4072 40.5102 59.4072C40.6465 59.4072 40.7634 59.4657 40.8803 59.5632C40.9776 59.6607 41.0361 59.7777 41.0361 59.9336C41.0361 60.0896 40.9776 60.2066 40.8803 60.3041C40.7829 60.4016 40.666 60.4601 40.5102 60.4601C40.3739 60.4601 40.257 60.4016 40.1402 60.3041Z" fill="white"/>
<path d="M43.5094 59.7581H45.1648V60.4015H42.6914V55.4688H43.4899V59.7581H43.5094Z" fill="white"/>
<path d="M49.6245 59.4072H47.5601L47.2095 60.421H46.3721L48.1444 55.4883H49.0792L50.8515 60.421H49.9945L49.6245 59.4072ZM49.3908 58.7443L48.5923 56.4631L47.7938 58.7443H49.3908Z" fill="white"/>
</svg>
