<svg width="144" height="86" viewBox="0 0 144 86" fill="none" xmlns="http://www.w3.org/2000/svg">
<path d="M120.377 54.5748L72.1616 18.7685L58.6784 29.8296L48.0537 20.9591L73.1054 1.29811L141.896 54.5748H120.377Z" fill="#F79E2F"/>
<path d="M120.108 32.4258V14.9553H103.604V19.1742L120.108 32.4258Z" fill="#1B6294"/>
<path d="M2.42676 55.3862L44.7638 23.6906L84.8088 55.3862H2.42676Z" fill="#1B6294"/>
<path d="M11.5951 65.9874C11.2445 66.6365 10.7052 67.1503 9.97707 67.5289C9.24898 67.9346 8.30516 68.1239 7.17258 68.1239H4.88044V73.3975H2.12988V59.6591H7.17258C8.22427 59.6591 9.14112 59.8484 9.86921 60.2C10.6243 60.5786 11.1636 61.0654 11.5411 61.7145C11.9186 62.3635 12.1074 63.0937 12.1074 63.905C12.1074 64.6623 11.9456 65.3654 11.5951 65.9874ZM8.73662 65.3924C9.11415 65.0409 9.27595 64.5541 9.27595 63.9321C9.27595 62.6069 8.52089 61.9308 7.03775 61.9308H4.85348V65.9333H7.03775C7.81977 65.9063 8.38606 65.744 8.73662 65.3924Z" fill="#353636"/>
<path d="M22.1921 73.4245L19.1719 68.0698H17.8775V73.4245H15.127V59.6862H20.2775C21.3292 59.6862 22.2461 59.8755 22.9741 60.2541C23.7292 60.6327 24.2685 61.1195 24.6461 61.7685C25.0236 62.4176 25.2123 63.1208 25.2123 63.905C25.2123 64.7975 24.9427 65.6358 24.4303 66.366C23.918 67.0962 23.1359 67.583 22.0843 67.8805L25.3472 73.4516H22.1921V73.4245ZM17.8775 65.9874H20.1697C20.9247 65.9874 21.464 65.7981 21.8416 65.4465C22.2191 65.095 22.3809 64.5811 22.3809 63.9321C22.3809 63.3101 22.1921 62.8233 21.8416 62.4717C21.464 62.1201 20.9247 61.9579 20.1697 61.9579H17.8775V65.9874Z" fill="#353636"/>
<path d="M31.6033 72.6402C30.5246 72.0453 29.6887 71.2069 29.0415 70.1251C28.4213 69.0434 28.0977 67.8535 28.0977 66.5012C28.0977 65.1761 28.4213 63.9591 29.0415 62.9044C29.6617 61.8226 30.5246 61.0113 31.6033 60.3893C32.6819 59.7943 33.8415 59.4968 35.1359 59.4968C36.4302 59.4968 37.6168 59.7943 38.6684 60.3893C39.7471 60.9843 40.583 61.8226 41.2033 62.9044C41.8235 63.9862 42.1471 65.1761 42.1471 66.5012C42.1471 67.8535 41.8235 69.0704 41.2033 70.1251C40.583 71.2069 39.7471 72.0182 38.6684 72.6402C37.5898 73.2352 36.4302 73.5327 35.1359 73.5327C33.8684 73.5597 32.6819 73.2623 31.6033 72.6402ZM37.3201 70.5308C37.9404 70.1522 38.4257 69.6113 38.8033 68.9352C39.1538 68.2321 39.3426 67.4207 39.3426 66.5283C39.3426 65.6088 39.1538 64.7975 38.8033 64.1214C38.4527 63.4453 37.9673 62.9044 37.3201 62.5258C36.6999 62.1472 35.9718 61.9849 35.1359 61.9849C34.2999 61.9849 33.5718 62.1742 32.9516 62.5258C32.3044 62.9044 31.819 63.4182 31.4684 64.1214C31.1179 64.7975 30.9291 65.6088 30.9291 66.5283C30.9291 67.4478 31.1179 68.2591 31.4684 68.9352C31.819 69.6384 32.3044 70.1522 32.9516 70.5308C33.5988 70.9094 34.3269 71.0987 35.1359 71.0987C35.9448 71.0987 36.6999 70.9094 37.3201 70.5308Z" fill="#353636"/>
<path d="M54.7954 63.8239C54.4718 63.256 54.0404 62.7962 53.501 62.4987C52.9617 62.2013 52.3145 62.039 51.5864 62.039C50.7774 62.039 50.0494 62.2283 49.4291 62.5799C48.8089 62.9585 48.3235 63.4723 47.946 64.1484C47.5954 64.8245 47.4067 65.6088 47.4067 66.5012C47.4067 67.4207 47.5954 68.2321 47.946 68.9082C48.2965 69.5843 48.8089 70.1252 49.4561 70.4767C50.1033 70.8553 50.8314 71.0176 51.6943 71.0176C52.746 71.0176 53.6089 70.7472 54.2561 70.1792C54.9302 69.6113 55.3617 68.8541 55.5774 67.8535H50.8583V65.744H58.2741V68.1509C58.0853 69.0975 57.7078 69.9899 57.0876 70.8012C56.4943 71.6126 55.7123 72.2616 54.7685 72.7484C53.8246 73.2352 52.746 73.4786 51.5864 73.4786C50.2651 73.4786 49.0786 73.1811 47.9999 72.5862C46.9213 71.9912 46.0853 71.1528 45.492 70.0981C44.8718 69.0434 44.5752 67.8264 44.5752 66.4742C44.5752 65.122 44.8718 63.905 45.492 62.8503C46.1123 61.7685 46.9482 60.9572 47.9999 60.3623C49.0786 59.7673 50.2651 59.4698 51.5595 59.4698C53.0965 59.4698 54.4449 59.8484 55.5774 60.6057C56.71 61.3629 57.492 62.4176 57.9235 63.7698H54.7954V63.8239Z" fill="#353636"/>
<path d="M68.4665 73.4245L65.4463 68.0698H64.1519V73.4245H61.4014V59.6862H66.5519C67.6036 59.6862 68.5205 59.8755 69.2486 60.2541C70.0036 60.6327 70.5429 61.1195 70.9205 61.7685C71.298 62.4176 71.4868 63.1208 71.4868 63.905C71.4868 64.7975 71.2171 65.6358 70.7047 66.366C70.1924 67.0962 69.4104 67.583 68.3587 67.8805L71.6216 73.4516H68.4665V73.4245ZM64.1519 65.9874H66.4441C67.1991 65.9874 67.7384 65.7981 68.116 65.4465C68.4935 65.095 68.6553 64.5811 68.6553 63.9321C68.6553 63.3101 68.4665 62.8233 68.116 62.4717C67.7384 62.1201 67.1991 61.9579 66.4441 61.9579H64.1519V65.9874Z" fill="#353636"/>
<path d="M77.7974 61.9038V65.3384H82.4087V67.5289H77.7974V71.1799H83.0019V73.4245H75.0469V59.6862H83.0019V61.9308H77.7974V61.9038Z" fill="#353636"/>
<path d="M88.7182 73.073C87.9632 72.7484 87.3429 72.2616 86.9115 71.6667C86.48 71.0447 86.2373 70.3145 86.2373 69.4761H89.1766C89.2036 70.044 89.4193 70.4767 89.7699 70.8013C90.1205 71.1258 90.6328 71.288 91.253 71.288C91.9002 71.288 92.3856 71.1258 92.7632 70.8283C93.1407 70.5308 93.3025 70.1252 93.3025 69.6113C93.3025 69.2057 93.1676 68.8811 92.925 68.6107C92.6823 68.3402 92.3587 68.1509 91.9811 67.9887C91.6036 67.8264 91.0912 67.6641 90.444 67.4748C89.5542 67.2044 88.8261 66.961 88.2867 66.6906C87.7205 66.4472 87.262 66.0415 86.8575 65.5277C86.453 65.0138 86.2643 64.3107 86.2643 63.4453C86.2643 62.634 86.48 61.9308 86.8845 61.3088C87.289 60.7138 87.8553 60.2541 88.5834 59.9296C89.3115 59.605 90.1474 59.4428 91.0912 59.4428C92.4935 59.4428 93.653 59.7943 94.5429 60.4704C95.4328 61.1465 95.9182 62.1201 95.9991 63.3641H92.9789C92.9519 62.9044 92.7632 62.4987 92.3856 62.2013C92.0081 61.9038 91.5227 61.7415 90.9025 61.7415C90.3632 61.7415 89.9317 61.8767 89.6081 62.1472C89.2845 62.4176 89.1227 62.8233 89.1227 63.3371C89.1227 63.7157 89.2306 64.0132 89.4733 64.2566C89.716 64.5 90.0126 64.6893 90.3632 64.8516C90.7137 65.0138 91.2261 65.1761 91.8733 65.3654C92.7632 65.6358 93.4912 65.8792 94.0575 66.1497C94.6238 66.4201 95.1092 66.7987 95.5137 67.3396C95.9182 67.8535 96.1339 68.5566 96.1339 69.395C96.1339 70.1252 95.9452 70.8013 95.5676 71.4503C95.1901 72.0723 94.6238 72.5862 93.8957 72.9648C93.1676 73.3434 92.3047 73.5327 91.28 73.5327C90.3362 73.5597 89.4733 73.3975 88.7182 73.073Z" fill="#353636"/>
<path d="M101.744 73.073C100.989 72.7484 100.368 72.2616 99.9369 71.6667C99.5054 71.0447 99.2627 70.3145 99.2627 69.4761H102.202C102.229 70.044 102.445 70.4767 102.795 70.8013C103.146 71.1258 103.658 71.288 104.278 71.288C104.926 71.288 105.411 71.1258 105.789 70.8283C106.166 70.5308 106.328 70.1252 106.328 69.6113C106.328 69.2057 106.193 68.8811 105.95 68.6107C105.708 68.3402 105.384 68.1509 105.007 67.9887C104.629 67.8264 104.117 67.6641 103.469 67.4748C102.58 67.2044 101.851 66.961 101.312 66.6906C100.746 66.4472 100.287 66.0415 99.8829 65.5277C99.4784 65.0138 99.2897 64.3107 99.2897 63.4453C99.2897 62.634 99.5054 61.9308 99.9099 61.3088C100.314 60.7138 100.881 60.2541 101.609 59.9296C102.337 59.605 103.173 59.4428 104.117 59.4428C105.519 59.4428 106.678 59.7943 107.568 60.4704C108.458 61.1465 108.944 62.1201 109.024 63.3641H105.977C105.95 62.9044 105.762 62.4987 105.384 62.2013C105.007 61.9038 104.521 61.7415 103.901 61.7415C103.362 61.7415 102.93 61.8767 102.607 62.1472C102.283 62.4176 102.121 62.8233 102.121 63.3371C102.121 63.7157 102.229 64.0132 102.472 64.2566C102.714 64.5 103.011 64.6893 103.362 64.8516C103.712 65.0138 104.224 65.1761 104.872 65.3654C105.762 65.6358 106.49 65.8792 107.056 66.1497C107.622 66.4201 108.108 66.7987 108.512 67.3396C108.917 67.8535 109.132 68.5566 109.132 69.395C109.132 70.1252 108.944 70.8013 108.566 71.4503C108.189 72.0723 107.622 72.5862 106.894 72.9648C106.166 73.3434 105.303 73.5327 104.278 73.5327C103.362 73.5597 102.499 73.3975 101.744 73.073Z" fill="#353636"/>
<path d="M115.361 59.6862V73.4245H112.61V59.6862H115.361Z" fill="#353636"/>
<path d="M131.433 59.6862L126.417 73.4245H123.073L118.058 59.6862H120.997L124.772 70.6119L128.521 59.6862H131.433Z" fill="#353636"/>
<path d="M136.908 61.9038V65.3384H141.519V67.5289H136.908V71.1799H142.112V73.4245H134.157V59.6862H142.112V61.9308H136.908V61.9038Z" fill="#353636"/>
<path d="M7.17254 80.8616C7.41523 81.1862 7.55007 81.5377 7.55007 81.9434C7.55007 82.295 7.46917 82.5925 7.2804 82.8899C7.09164 83.1604 6.84894 83.3767 6.49838 83.539C6.14782 83.7013 5.77029 83.7824 5.31186 83.7824H2.61523V76.9403H5.204C5.66243 76.9403 6.06692 77.0214 6.39052 77.1837C6.71411 77.3459 6.98377 77.5623 7.14557 77.8057C7.30737 78.0761 7.38827 78.3736 7.38827 78.6981C7.38827 79.1038 7.2804 79.4283 7.06467 79.6717C6.84894 79.9422 6.57928 80.1315 6.22872 80.2396C6.60625 80.3478 6.92984 80.5371 7.17254 80.8616ZM3.72085 79.834H5.09613C5.47366 79.834 5.74332 79.7528 5.95905 79.5906C6.17479 79.4283 6.25568 79.1849 6.25568 78.8604C6.25568 78.5629 6.14782 78.3195 5.95905 78.1302C5.74332 77.9679 5.47366 77.8598 5.09613 77.8598H3.72085V79.834ZM6.12085 82.5925C6.33658 82.4032 6.44445 82.1598 6.44445 81.8352C6.44445 81.5107 6.33658 81.2403 6.09389 81.051C5.87816 80.8616 5.55456 80.7535 5.17703 80.7535H3.69389V82.8899H5.204C5.60849 82.8899 5.90512 82.7818 6.12085 82.5925Z" fill="#353535"/>
<path d="M11.0017 76.9673V81.3214C11.0017 81.8352 11.1366 82.2409 11.4062 82.4843C11.6759 82.7547 12.0534 82.8899 12.5388 82.8899C13.0242 82.8899 13.4017 82.7547 13.6714 82.4843C13.9411 82.2138 14.0759 81.8352 14.0759 81.3214V76.9673H15.1815V81.2943C15.1815 81.8623 15.0736 82.322 14.8309 82.7006C14.5882 83.0792 14.2646 83.3767 13.8602 83.566C13.4557 83.7553 12.9972 83.8635 12.5118 83.8635C12.0264 83.8635 11.568 83.7553 11.1635 83.566C10.759 83.3767 10.4354 83.0792 10.2197 82.7006C9.97701 82.322 9.86914 81.8352 9.86914 81.2943V76.9673H11.0017Z" fill="#353535"/>
<path d="M18.9025 76.9673V83.8095H17.7969V76.9673H18.9025Z" fill="#353535"/>
<path d="M22.5968 82.8899H24.889V83.7824H21.4912V76.9403H22.5968V82.8899Z" fill="#353535"/>
<path d="M31.0917 77.373C31.631 77.6434 32.0624 78.0491 32.3591 78.5629C32.6557 79.0767 32.8175 79.6987 32.8175 80.3748C32.8175 81.078 32.6557 81.673 32.3591 82.1868C32.0624 82.7006 31.631 83.0793 31.0917 83.3497C30.5523 83.6201 29.9051 83.7554 29.1771 83.7554H26.9658V76.9132H29.204C29.9051 76.9673 30.5523 77.1025 31.0917 77.373ZM31.0108 82.2409C31.4422 81.8082 31.658 81.1862 31.658 80.4019C31.658 79.6176 31.4422 78.9956 31.0108 78.5358C30.5793 78.1031 29.986 77.8597 29.1771 77.8597H28.0714V82.8629H29.1771C29.986 82.8899 30.6063 82.6736 31.0108 82.2409Z" fill="#353535"/>
<path d="M36.1609 77.8598V79.861H38.507V80.7805H36.1609V82.8629H38.8036V83.7824H35.0283V76.9403H38.8036V77.8598H36.1609Z" fill="#353535"/>
<path d="M44.8441 83.7824L43.2801 81.051H42.4171V83.7824H41.3115V76.9403H43.6576C44.1699 76.9403 44.6284 77.0214 44.9789 77.2107C45.3295 77.4 45.6261 77.6434 45.7879 77.9409C45.9767 78.2384 46.0576 78.5899 46.0576 78.9686C46.0576 79.4013 45.9228 79.8069 45.6801 80.1855C45.4104 80.5371 45.0329 80.8076 44.4935 80.9157L46.1924 83.7554H44.8441V83.7824ZM42.4171 80.1585H43.6576C44.0891 80.1585 44.3857 80.0503 44.6014 79.834C44.8171 79.6176 44.925 79.3472 44.925 78.9956C44.925 78.644 44.8171 78.3736 44.6014 78.1572C44.3857 77.9679 44.0621 77.8598 43.6576 77.8598H42.4171V80.1585Z" fill="#353535"/>
<path d="M49.6182 83.6201C49.2406 83.4579 48.971 83.2415 48.7552 82.944C48.5395 82.6466 48.4316 82.295 48.4316 81.9164H49.6182C49.6451 82.2139 49.753 82.4573 49.9687 82.6466C50.1844 82.8359 50.4541 82.944 50.8316 82.944C51.2092 82.944 51.5058 82.8629 51.7215 82.6736C51.9373 82.4843 52.0451 82.2409 52.0451 81.9434C52.0451 81.7271 51.9912 81.5378 51.8564 81.3755C51.7215 81.2403 51.5597 81.1321 51.344 81.051C51.1552 80.9698 50.8586 80.8887 50.508 80.8076C50.0766 80.6994 49.6991 80.5642 49.4294 80.456C49.1597 80.3478 48.917 80.1585 48.7283 79.8881C48.5395 79.6447 48.4316 79.2931 48.4316 78.8604C48.4316 78.4547 48.5395 78.1302 48.7283 77.8327C48.917 77.5352 49.1867 77.3189 49.5642 77.1566C49.9418 76.9944 50.3193 76.9132 50.7777 76.9132C51.4249 76.9132 51.9912 77.0755 52.3957 77.4C52.8271 77.7245 53.0429 78.1843 53.0968 78.7522H51.8564C51.8294 78.5088 51.7215 78.2925 51.5058 78.1032C51.2901 77.9139 50.9934 77.8327 50.6429 77.8327C50.3193 77.8327 50.0496 77.9139 49.8609 78.0761C49.6451 78.2384 49.5642 78.4818 49.5642 78.7793C49.5642 78.9956 49.6182 79.1579 49.753 79.2931C49.8878 79.4283 50.0496 79.5365 50.2384 79.6176C50.4271 79.6988 50.6968 79.7799 51.0474 79.861C51.5058 79.9962 51.8564 80.1044 52.153 80.2396C52.4496 80.3749 52.6923 80.5642 52.8811 80.8076C53.0698 81.078 53.1777 81.4025 53.1777 81.8352C53.1777 82.1868 53.0968 82.5113 52.908 82.8088C52.7193 83.1063 52.4496 83.3767 52.0991 83.539C51.7485 83.7283 51.317 83.8094 50.8316 83.8094C50.4002 83.8635 49.9957 83.7824 49.6182 83.6201Z" fill="#353535"/>
<path d="M55.5771 83.6472C55.4422 83.512 55.3613 83.3497 55.3613 83.1334C55.3613 82.917 55.4422 82.7547 55.5771 82.6195C55.7119 82.4843 55.8737 82.4032 56.0894 82.4032C56.2782 82.4032 56.44 82.4843 56.6018 82.6195C56.7366 82.7547 56.8175 82.917 56.8175 83.1334C56.8175 83.3497 56.7366 83.512 56.6018 83.6472C56.4669 83.7824 56.3051 83.8635 56.0894 83.8635C55.9007 83.8635 55.7389 83.7824 55.5771 83.6472Z" fill="#353535"/>
<path d="M60.242 82.8899H62.5341V83.7824H59.1094V76.9403H60.215V82.8899H60.242Z" fill="#353535"/>
<path d="M68.7094 82.4032H65.851L65.3656 83.8094H64.2061L66.66 76.9673H67.9544L70.4083 83.8094H69.2218L68.7094 82.4032ZM68.3858 81.4836L67.2802 78.3195L66.1746 81.4836H68.3858Z" fill="#353535"/>
</svg>
