<svg width="21" height="21" viewBox="0 0 21 21" fill="none" xmlns="http://www.w3.org/2000/svg">
<g clip-path="url(#clip0_133_1053)">
<path d="M14.744 0H6.25601C2.80643 0 0 2.80643 0 6.25601V14.744C0 18.1936 2.80643 21 6.25601 21H14.744C18.1936 21 21 18.1936 21 14.744V6.25601C21 2.80643 18.1935 0 14.744 0ZM18.8874 14.744C18.8874 17.0323 17.0323 18.8874 14.744 18.8874H6.25601C3.96769 18.8874 2.1126 17.0323 2.1126 14.744V6.25601C2.1126 3.96765 3.96769 2.1126 6.25601 2.1126H14.744C17.0323 2.1126 18.8874 3.96765 18.8874 6.25601V14.744Z" fill="url(#paint0_linear_133_1053)"/>
<path d="M10.4997 5.06866C7.50486 5.06866 5.06836 7.50516 5.06836 10.5C5.06836 13.4948 7.50486 15.9313 10.4997 15.9313C13.4946 15.9313 15.9311 13.4948 15.9311 10.5C15.9311 7.50512 13.4946 5.06866 10.4997 5.06866ZM10.4997 13.8188C8.6668 13.8188 7.18096 12.3329 7.18096 10.5C7.18096 8.6671 8.66684 7.18126 10.4997 7.18126C12.3326 7.18126 13.8185 8.6671 13.8185 10.5C13.8185 12.3329 12.3326 13.8188 10.4997 13.8188Z" fill="url(#paint1_linear_133_1053)"/>
<path d="M15.9421 6.41091C16.6609 6.41091 17.2435 5.82822 17.2435 5.10945C17.2435 4.39067 16.6609 3.80798 15.9421 3.80798C15.2233 3.80798 14.6406 4.39067 14.6406 5.10945C14.6406 5.82822 15.2233 6.41091 15.9421 6.41091Z" fill="url(#paint2_linear_133_1053)"/>
</g>
<defs>
<linearGradient id="paint0_linear_133_1053" x1="10.5" y1="20.9389" x2="10.5" y2="0.163111" gradientUnits="userSpaceOnUse">
<stop stop-color="#E09B3D"/>
<stop offset="0.3" stop-color="#C74C4D"/>
<stop offset="0.6" stop-color="#C21975"/>
<stop offset="1" stop-color="#7024C4"/>
</linearGradient>
<linearGradient id="paint1_linear_133_1053" x1="10.4997" y1="20.9389" x2="10.4997" y2="0.163124" gradientUnits="userSpaceOnUse">
<stop stop-color="#E09B3D"/>
<stop offset="0.3" stop-color="#C74C4D"/>
<stop offset="0.6" stop-color="#C21975"/>
<stop offset="1" stop-color="#7024C4"/>
</linearGradient>
<linearGradient id="paint2_linear_133_1053" x1="15.9421" y1="20.9389" x2="15.9421" y2="0.163127" gradientUnits="userSpaceOnUse">
<stop stop-color="#E09B3D"/>
<stop offset="0.3" stop-color="#C74C4D"/>
<stop offset="0.6" stop-color="#C21975"/>
<stop offset="1" stop-color="#7024C4"/>
</linearGradient>
<clipPath id="clip0_133_1053">
<rect width="21" height="21" fill="white"/>
</clipPath>
</defs>
</svg>
