<svg width="14" height="21" viewBox="0 0 14 21" fill="none" xmlns="http://www.w3.org/2000/svg">
<path fill-rule="evenodd" clip-rule="evenodd" d="M6.92373 0.473318C6.07944 2.22787 3.06461 3.92968 6.7802 6.6396C7.80575 7.40188 9.52535 7.85785 8.64604 9.65104C8.56806 9.7877 8.70393 9.82537 8.82545 9.72274C10.0795 8.26854 12.122 5.97484 10.4033 4.10163C9.42738 3.04646 7.42486 2.35066 7.02405 1.34883C6.9465 1.155 7.03224 0.874163 7.13902 0.65257C7.22509 0.446488 6.96952 0.392655 6.92373 0.473318ZM5.17138 6.56207C4.7296 7.74741 2.49593 9.11082 5.47807 10.6846C6.1676 11.0903 7.05966 11.598 6.96181 12.341C6.92497 12.4358 7.01125 12.4487 7.0775 12.3722C8.06003 11.2628 8.79759 9.67547 7.59431 8.61108C6.96579 8.01089 5.47903 7.68668 5.31767 6.65965C5.35392 6.51938 5.19298 6.50615 5.17138 6.56207ZM3.19657 12.625L2.73438 13.4375H11.0625L10.6003 12.625H3.19657ZM4.76562 13.6406L5.3125 15.0625L8.52812 15.052L9.03125 13.6406H4.76562Z" fill="#265797"/>
<path fill-rule="evenodd" clip-rule="evenodd" d="M1.71875 19.9506L1.77658 20.1406L3.52084 20.1126C4.6071 20.1099 5.08962 18.2427 3.74059 17.8572C4.75047 17.0898 4.1509 15.6646 3.36977 15.6859L1.79031 15.6719L1.71875 15.7084V15.6719H0.703125V20.1406H1.71875V19.9506ZM1.71875 19.3297L3.19122 19.3421C3.71766 19.3573 3.7517 18.271 3.20495 18.2635L1.71875 18.2908V19.3297ZM1.71875 17.451H2.99894C3.61819 17.4773 3.42608 16.4678 3.01267 16.4704L1.71875 16.4437V17.451Z" fill="#265797"/>
<path fill-rule="evenodd" clip-rule="evenodd" d="M10.6562 19.9506L10.7141 20.1406L12.4583 20.1126C13.5446 20.1099 14.0271 18.2427 12.6781 17.8572C13.688 17.0898 13.0884 15.6646 12.3073 15.6859L10.7278 15.6719L10.6562 15.7084V15.6719H9.64062V20.1406H10.6562V19.9506ZM10.6562 19.3297L12.1287 19.3421C12.6552 19.3573 12.6892 18.271 12.1425 18.2635L10.6562 18.2908V19.3297ZM10.6562 17.451H11.9364C12.5557 17.4773 12.3636 16.4678 11.9502 16.4704L10.6562 16.4437V17.451Z" fill="#265797"/>
<path fill-rule="evenodd" clip-rule="evenodd" d="M6.1875 19.9506L6.24533 20.1406L7.98959 20.1126C9.07585 20.1099 9.55837 18.2427 8.20934 17.8572C9.21922 17.0898 8.61965 15.6646 7.83852 15.6859L6.25906 15.6719L6.1875 15.7084V15.6719H5.17188V20.1406H6.1875V19.9506ZM6.1875 19.3297L7.65997 19.3421C8.18641 19.3573 8.22045 18.271 7.6737 18.2635L6.1875 18.2908V19.3297ZM6.1875 17.451H7.46769C8.08694 17.4773 7.89483 16.4678 7.48142 16.4704L6.1875 16.4437V17.451Z" fill="#265797"/>
</svg>
