<?xml version="1.0" standalone="no"?>
<!DOCTYPE svg PUBLIC "-//W3C//DTD SVG 20010904//EN"
 "http://www.w3.org/TR/2001/REC-SVG-20010904/DTD/svg10.dtd">
<svg version="1.0" xmlns="http://www.w3.org/2000/svg"
 width="18.000000pt" height="23.000000pt" viewBox="0 0 18.000000 23.000000"
 preserveAspectRatio="xMidYMid meet">

<g transform="translate(0.000000,23.000000) scale(0.100000,-0.100000)"
fill="#000000" stroke="none">
<path d="M94 189 c3 -17 7 -37 7 -43 1 -6 5 3 9 19 l8 30 2 -30 c2 -30 2 -30
10 -5 15 47 12 60 -16 60 -24 0 -26 -3 -20 -31z m36 13 c0 -5 -7 -9 -15 -9 -8
0 -15 4 -15 9 0 4 7 8 15 8 8 0 15 -4 15 -8z"/>
<path d="M80 140 c0 -11 -6 -20 -13 -20 -15 0 -47 -31 -47 -46 0 -5 5 -1 11 9
6 10 22 22 35 27 14 6 24 18 24 30 0 11 -2 20 -5 20 -3 0 -5 -9 -5 -20z"/>
<path d="M142 140 c0 -14 2 -19 5 -12 2 6 2 18 0 25 -3 6 -5 1 -5 -13z"/>
<path d="M49 83 c-13 -16 -12 -17 4 -4 15 12 17 11 17 -5 0 -15 2 -16 9 -5 7
11 9 11 13 0 3 -8 7 -5 10 9 5 18 2 22 -17 22 -12 0 -29 -8 -36 -17z"/>
<path d="M152 80 c0 -14 2 -19 5 -12 2 6 2 18 0 25 -3 6 -5 1 -5 -13z"/>
<path d="M20 41 c0 -6 4 -13 10 -16 6 -3 7 1 4 9 -7 18 -14 21 -14 7z"/>
<path d="M46 38 c3 -5 10 -6 15 -3 13 9 11 12 -6 12 -8 0 -12 -4 -9 -9z"/>
</g>
</svg>
